# xmcd CD database file
#
# Track frame offsets:
#	182
#	18525
#	37410
#
# Disc length: 786 seconds
#
# Revision: 1
# Processed by: cddbd v1.5.1PL0 Copyright (c) Steve Scherf et al.
# Submitted via: CDex 1.51
#
DISCID=24031003
DTITLE=Shania Twain - Who's Bed Have Your Boots Been Under (Maxi-Single)
DYEAR=1900
DGENRE=Country
TTITLE0=Who's Bed Have Your Boots Been Under
TTITLE1=Any Man Of Mine
TTITLE2=Who's Bed Have Your Boots Been Under (dance mix)
EXTD=
EXTT0=
EXTT1=
EXTT2=
PLAYORDER=
